<svg width="201" height="32" viewBox="0 0 201 32" fill="none" xmlns="http://www.w3.org/2000/svg">
<path d="M12.4386 31.32C10.3586 31.32 8.62526 31.1867 7.23859 30.92C5.85193 30.6267 4.71859 30.16 3.83859 29.52C2.98526 28.88 2.33193 28.0267 1.87859 26.96C1.45193 25.8933 1.15859 24.56 0.998594 22.96C0.838594 21.36 0.758594 19.4533 0.758594 17.24C0.758594 15.0267 0.838594 13.12 0.998594 11.52C1.15859 9.92 1.45193 8.58667 1.87859 7.52C2.33193 6.45333 2.98526 5.6 3.83859 4.96C4.71859 4.32 5.85193 3.86667 7.23859 3.6C8.62526 3.30666 10.3586 3.16 12.4386 3.16C13.2386 3.16 14.0653 3.18667 14.9186 3.24C15.7719 3.29333 16.5986 3.37333 17.3986 3.48C18.1986 3.58667 18.8786 3.72 19.4386 3.88V8.88C18.6119 8.8 17.8519 8.73333 17.1586 8.68C16.4919 8.6 15.9053 8.56 15.3986 8.56C14.8919 8.53333 14.4653 8.52 14.1186 8.52C12.8919 8.52 11.8786 8.57333 11.0786 8.68C10.3053 8.76 9.69193 8.96 9.23859 9.28C8.78526 9.6 8.45193 10.08 8.23859 10.72C8.02526 11.3333 7.87859 12.1733 7.79859 13.24C7.74526 14.28 7.71859 15.6133 7.71859 17.24C7.71859 18.84 7.74526 20.1733 7.79859 21.24C7.87859 22.3067 8.02526 23.16 8.23859 23.8C8.45193 24.44 8.78526 24.92 9.23859 25.24C9.69193 25.5333 10.3053 25.7333 11.0786 25.84C11.8786 25.92 12.8919 25.96 14.1186 25.96C14.9453 25.96 15.8786 25.9333 16.9186 25.88C17.9586 25.8 18.8519 25.7067 19.5986 25.6V30.72C19.0119 30.8267 18.3053 30.92 17.4786 31C16.6519 31.1067 15.7986 31.1867 14.9186 31.24C14.0653 31.2933 13.2386 31.32 12.4386 31.32ZM24.2111 31V3.48H31.1711V14.28H40.0911V3.48H47.0511V31H40.0911V20.08H31.1711V31H24.2111ZM50.2067 31L58.9267 3.48H68.4067L77.1667 31H70.1267L68.4867 25.6H58.6867L57.0867 31H50.2067ZM60.1667 20.36H66.9667L63.6867 9.48H63.4067L60.1667 20.36ZM80.3439 31V3.48H87.3039V31H80.3439ZM93.0392 31V3.48H100.199L109.159 18.24H109.359V3.48H116.039V31H109.519L99.9192 14.88H99.7192V31H93.0392Z" fill="#FEC901"/>
<path d="M127.426 12.9531C129.171 10.7917 131.495 9.71094 134.398 9.71094C135.896 9.71094 137.178 10.0234 138.246 10.6484C139.327 11.2604 140.134 12.1523 140.668 13.3242C141.658 12.1003 142.751 11.1953 143.949 10.6094C145.147 10.0104 146.495 9.71094 147.992 9.71094C150.232 9.71094 151.957 10.3555 153.168 11.6445C154.379 12.9206 154.984 14.7305 154.984 17.0742V31H148.988V17.4062C148.988 16.1823 148.747 15.2969 148.266 14.75C147.784 14.2031 147.009 13.9297 145.941 13.9297C144.978 13.9297 144.099 14.1445 143.305 14.5742C142.51 14.9909 141.846 15.5833 141.312 16.3516C141.312 16.4036 141.326 16.5273 141.352 16.7227C141.378 16.9049 141.391 17.1198 141.391 17.3672V31H135.395V17.4062C135.395 16.1823 135.154 15.2969 134.672 14.75C134.19 14.2031 133.415 13.9297 132.348 13.9297C131.41 13.9297 130.538 14.151 129.73 14.5938C128.923 15.0234 128.279 15.6094 127.797 16.3516V31H121.801V10.043H126.801L127.426 12.9531ZM168.266 9.63281C171.221 9.63281 173.487 10.362 175.062 11.8203C176.638 13.2786 177.426 15.3945 177.426 18.168V31H172.465L171.781 28.5195C170.922 29.431 169.952 30.1276 168.871 30.6094C167.803 31.0781 166.658 31.3125 165.434 31.3125C163.272 31.3125 161.553 30.7526 160.277 29.6328C159.014 28.513 158.383 27.0091 158.383 25.1211C158.383 22.9336 159.301 21.2279 161.137 20.0039C162.986 18.7799 165.564 18.168 168.871 18.168H171.43V17.6406C171.352 15.2188 169.978 14.0078 167.309 14.0078C166.397 14.0078 165.342 14.1445 164.145 14.418C162.947 14.6784 161.866 15.0169 160.902 15.4336L159.633 11.3906C161.013 10.8307 162.465 10.401 163.988 10.1016C165.512 9.78906 166.938 9.63281 168.266 9.63281ZM169.379 21.4492C167.673 21.4492 166.345 21.7422 165.395 22.3281C164.457 22.9141 163.988 23.7279 163.988 24.7695C163.988 25.6289 164.249 26.2865 164.77 26.7422C165.29 27.1849 166.026 27.4062 166.977 27.4062C167.836 27.4062 168.656 27.2174 169.438 26.8398C170.232 26.4622 170.896 25.9544 171.43 25.3164V21.4492H169.379ZM182.621 1.60547H188.617V7.07422H182.621V1.60547ZM182.621 10.2773H188.617V31H182.621V10.2773ZM194.496 0.921875H200.492V31H194.496V0.921875Z" fill="#01A0C7"/>
<path d="M7.23859 30.92L7.03164 31.8983L7.04067 31.9003L7.04975 31.902L7.23859 30.92ZM3.83859 29.52L3.23859 30.32L3.24448 30.3244L3.25042 30.3287L3.83859 29.52ZM1.87859 26.96L0.950117 27.3314L0.954085 27.3413L0.958263 27.3511L1.87859 26.96ZM0.998594 22.96L1.99363 22.8605L1.99363 22.8605L0.998594 22.96ZM0.998594 11.52L1.99363 11.6195L1.99363 11.6195L0.998594 11.52ZM1.87859 7.52L0.958263 7.12886L0.954085 7.13869L0.950117 7.14861L1.87859 7.52ZM3.83859 4.96L3.25042 4.15126L3.24448 4.15559L3.23859 4.16L3.83859 4.96ZM7.23859 3.6L7.42744 4.582L7.43651 4.58026L7.44555 4.57835L7.23859 3.6ZM14.9186 3.24L14.8562 4.23805L14.8562 4.23805L14.9186 3.24ZM17.3986 3.48L17.2664 4.47123L17.2664 4.47123L17.3986 3.48ZM19.4386 3.88H20.4386V3.1257L19.7133 2.91847L19.4386 3.88ZM19.4386 8.88L19.3423 9.87535L20.4386 9.98145V8.88H19.4386ZM17.1586 8.68L17.0394 9.67288L17.0606 9.67542L17.0819 9.67705L17.1586 8.68ZM15.3986 8.56L15.346 9.55862L15.3723 9.56H15.3986V8.56ZM11.0786 8.68L11.1815 9.67469L11.1962 9.67317L11.2108 9.67123L11.0786 8.68ZM9.23859 9.28L8.66191 8.46303L8.66191 8.46303L9.23859 9.28ZM8.23859 10.72L9.18317 11.0485L9.18728 11.0362L8.23859 10.72ZM7.79859 13.24L6.80139 13.1652L6.80051 13.177L6.79991 13.1888L7.79859 13.24ZM7.79859 21.24L6.79984 21.2899L6.80046 21.3024L6.80139 21.3148L7.79859 21.24ZM8.23859 23.8L9.18728 23.4838L9.18728 23.4838L8.23859 23.8ZM9.23859 25.24L8.66191 26.057L8.6784 26.0686L8.69534 26.0796L9.23859 25.24ZM11.0786 25.84L10.942 26.8306L10.9605 26.8332L10.9791 26.835L11.0786 25.84ZM16.9186 25.88L16.9698 26.8787L16.9826 26.878L16.9953 26.8771L16.9186 25.88ZM19.5986 25.6H20.5986V24.447L19.4572 24.6101L19.5986 25.6ZM19.5986 30.72L19.7775 31.7039L20.5986 31.5546V30.72H19.5986ZM17.4786 31L17.3823 30.0046L17.3664 30.0062L17.3506 30.0082L17.4786 31ZM14.9186 31.24L14.8581 30.2418L14.8562 30.2419L14.9186 31.24ZM12.4386 30.32C10.3952 30.32 8.7302 30.1885 7.42744 29.938L7.04975 31.902C8.52032 32.1848 10.322 32.32 12.4386 32.32V30.32ZM7.44555 29.9417C6.15664 29.669 5.16417 29.2476 4.42677 28.7113L3.25042 30.3287C4.27302 31.0724 5.54721 31.5843 7.03164 31.8983L7.44555 29.9417ZM4.43859 28.72C3.73825 28.1947 3.18951 27.4879 2.79892 26.5689L0.958263 27.3511C1.47435 28.5655 2.23227 29.5653 3.23859 30.32L4.43859 28.72ZM2.80707 26.5886C2.42602 25.636 2.14772 24.4014 1.99363 22.8605L0.00355673 23.0595C0.169471 24.7186 0.477836 26.1507 0.950117 27.3314L2.80707 26.5886ZM1.99363 22.8605C1.8379 21.3032 1.75859 19.4315 1.75859 17.24H-0.241406C-0.241406 19.4752 -0.160716 21.4168 0.00355674 23.0595L1.99363 22.8605ZM1.75859 17.24C1.75859 15.0485 1.8379 13.1768 1.99363 11.6195L0.00355674 11.4205C-0.160716 13.0632 -0.241406 15.0048 -0.241406 17.24H1.75859ZM1.99363 11.6195C2.14772 10.0786 2.42602 8.84402 2.80707 7.89139L0.950117 7.14861C0.477836 8.32931 0.169471 9.76135 0.00355673 11.4205L1.99363 11.6195ZM2.79892 7.91114C3.18951 6.99212 3.73825 6.28525 4.43859 5.76L3.23859 4.16C2.23227 4.91474 1.47435 5.91454 0.958263 7.12886L2.79892 7.91114ZM4.42677 5.76874C5.15815 5.23682 6.14374 4.82887 7.42744 4.582L7.04975 2.61799C5.56012 2.90446 4.27903 3.40318 3.25042 4.15126L4.42677 5.76874ZM7.44555 4.57835C8.74064 4.30439 10.3991 4.16 12.4386 4.16V2.16C10.3181 2.16 8.50988 2.30894 7.03164 2.62165L7.44555 4.57835ZM12.4386 4.16C13.2164 4.16 14.0222 4.18593 14.8562 4.23805L14.981 2.24195C14.1083 2.1874 13.2608 2.16 12.4386 2.16V4.16ZM14.8562 4.23805C15.6876 4.29001 16.4909 4.36783 17.2664 4.47123L17.5308 2.48877C16.7063 2.37884 15.8563 2.29665 14.981 2.24195L14.8562 4.23805ZM17.2664 4.47123C18.0352 4.57372 18.6646 4.69886 19.1639 4.84152L19.7133 2.91847C19.0926 2.74114 18.362 2.59961 17.5308 2.48877L17.2664 4.47123ZM18.4386 3.88V8.88H20.4386V3.88H18.4386ZM19.5349 7.88465C18.7029 7.80413 17.9363 7.73687 17.2353 7.68294L17.0819 9.67705C17.7676 9.7298 18.5209 9.79586 19.3423 9.87535L19.5349 7.88465ZM17.2777 7.68712C16.5834 7.6038 15.9555 7.56 15.3986 7.56V9.56C15.8551 9.56 16.4005 9.5962 17.0394 9.67288L17.2777 7.68712ZM15.4512 7.56138C14.9342 7.53417 14.4888 7.52 14.1186 7.52V9.52C14.4418 9.52 14.8497 9.53249 15.346 9.55862L15.4512 7.56138ZM14.1186 7.52C12.8679 7.52 11.8065 7.57409 10.9464 7.68877L11.2108 9.67123C11.9507 9.57257 12.9159 9.52 14.1186 9.52V7.52ZM10.9757 7.68531C10.0966 7.77625 9.30036 8.01236 8.66191 8.46303L9.81528 10.097C10.0835 9.90764 10.5139 9.74375 11.1815 9.67469L10.9757 7.68531ZM8.66191 8.46303C7.99951 8.93061 7.55581 9.60607 7.28991 10.4038L9.18728 11.0362C9.34804 10.5539 9.57101 10.2694 9.81528 10.097L8.66191 8.46303ZM7.2941 10.3915C7.03988 11.1223 6.88428 12.0601 6.80139 13.1652L8.79579 13.3148C8.87291 12.2866 9.01064 11.5443 9.18309 11.0485L7.2941 10.3915ZM6.79991 13.1888C6.74536 14.2525 6.71859 15.6046 6.71859 17.24H8.71859C8.71859 15.6221 8.74517 14.3075 8.79728 13.2912L6.79991 13.1888ZM6.71859 17.24C6.71859 18.8493 6.74538 20.2007 6.79984 21.2899L8.79735 21.1901C8.74514 20.146 8.71859 18.8307 8.71859 17.24H6.71859ZM6.80139 21.3148C6.88442 22.4217 7.03994 23.3663 7.28991 24.1162L9.18728 23.4838C9.01059 22.9537 8.87277 22.1916 8.79579 21.1652L6.80139 21.3148ZM7.28991 24.1162C7.55581 24.9139 7.99951 25.5894 8.66191 26.057L9.81528 24.423C9.57101 24.2506 9.34804 23.9661 9.18728 23.4838L7.28991 24.1162ZM8.69534 26.0796C9.3137 26.4797 10.0834 26.7122 10.942 26.8306L11.2152 24.8494C10.5271 24.7545 10.0702 24.587 9.78185 24.4004L8.69534 26.0796ZM10.9791 26.835C11.8245 26.9196 12.874 26.96 14.1186 26.96V24.96C12.9099 24.96 11.9327 24.9204 11.1781 24.845L10.9791 26.835ZM14.1186 26.96C14.966 26.96 15.9169 26.9327 16.9698 26.8787L16.8674 24.8813C15.8403 24.934 14.9245 24.96 14.1186 24.96V26.96ZM16.9953 26.8771C18.0494 26.796 18.9655 26.7006 19.74 26.5899L19.4572 24.6101C18.7384 24.7127 17.8678 24.804 16.8419 24.8829L16.9953 26.8771ZM18.5986 25.6V30.72H20.5986V25.6H18.5986ZM19.4197 29.7361C18.8686 29.8363 18.1911 29.9264 17.3823 30.0046L17.5749 31.9954C18.4194 31.9136 19.1552 31.817 19.7775 31.7039L19.4197 29.7361ZM17.3506 30.0082C16.5476 30.1118 15.7168 30.1898 14.8581 30.2418L14.9791 32.2382C15.8804 32.1835 16.7562 32.1015 17.6066 31.9918L17.3506 30.0082ZM14.8562 30.2419C14.0222 30.2941 13.2164 30.32 12.4386 30.32V32.32C13.2608 32.32 14.1083 32.2926 14.981 32.2381L14.8562 30.2419ZM24.2111 31H23.2111V32H24.2111V31ZM24.2111 3.48V2.48H23.2111V3.48H24.2111ZM31.1711 3.48H32.1711V2.48H31.1711V3.48ZM31.1711 14.28H30.1711V15.28H31.1711V14.28ZM40.0911 14.28V15.28H41.0911V14.28H40.0911ZM40.0911 3.48V2.48H39.0911V3.48H40.0911ZM47.0511 3.48H48.0511V2.48H47.0511V3.48ZM47.0511 31V32H48.0511V31H47.0511ZM40.0911 31H39.0911V32H40.0911V31ZM40.0911 20.08H41.0911V19.08H40.0911V20.08ZM31.1711 20.08V19.08H30.1711V20.08H31.1711ZM31.1711 31V32H32.1711V31H31.1711ZM25.2111 31V3.48H23.2111V31H25.2111ZM24.2111 4.48H31.1711V2.48H24.2111V4.48ZM30.1711 3.48V14.28H32.1711V3.48H30.1711ZM31.1711 15.28H40.0911V13.28H31.1711V15.28ZM41.0911 14.28V3.48H39.0911V14.28H41.0911ZM40.0911 4.48H47.0511V2.48H40.0911V4.48ZM46.0511 3.48V31H48.0511V3.48H46.0511ZM47.0511 30H40.0911V32H47.0511V30ZM41.0911 31V20.08H39.0911V31H41.0911ZM40.0911 19.08H31.1711V21.08H40.0911V19.08ZM30.1711 20.08V31H32.1711V20.08H30.1711ZM31.1711 30H24.2111V32H31.1711V30ZM50.2067 31L49.2534 30.6979L48.8409 32H50.2067V31ZM58.9267 3.48V2.48H58.1946L57.9734 3.17794L58.9267 3.48ZM68.4067 3.48L69.3596 3.17668L69.1378 2.48H68.4067V3.48ZM77.1667 31V32H78.5345L78.1196 30.6967L77.1667 31ZM70.1267 31L69.1699 31.2906L69.3853 32H70.1267V31ZM68.4867 25.6L69.4436 25.3094L69.2281 24.6H68.4867V25.6ZM58.6867 25.6V24.6H57.94L57.7279 25.3159L58.6867 25.6ZM57.0867 31V32H57.8334L58.0455 31.2841L57.0867 31ZM60.1667 20.36L59.2083 20.0746L58.8255 21.36H60.1667V20.36ZM66.9667 20.36V21.36H68.3126L67.9242 20.0714L66.9667 20.36ZM63.6867 9.48L64.6442 9.19136L64.4297 8.48H63.6867V9.48ZM63.4067 9.48V8.48H62.6611L62.4483 9.19459L63.4067 9.48ZM51.16 31.3021L59.88 3.78206L57.9734 3.17794L49.2534 30.6979L51.16 31.3021ZM58.9267 4.48H68.4067V2.48H58.9267V4.48ZM67.4538 3.78332L76.2138 31.3033L78.1196 30.6967L69.3596 3.17668L67.4538 3.78332ZM77.1667 30H70.1267V32H77.1667V30ZM71.0836 30.7094L69.4436 25.3094L67.5299 25.8906L69.1699 31.2906L71.0836 30.7094ZM68.4867 24.6H58.6867V26.6H68.4867V24.6ZM57.7279 25.3159L56.1279 30.7159L58.0455 31.2841L59.6455 25.8841L57.7279 25.3159ZM57.0867 30H50.2067V32H57.0867V30ZM60.1667 21.36H66.9667V19.36H60.1667V21.36ZM67.9242 20.0714L64.6442 9.19136L62.7293 9.76864L66.0093 20.6486L67.9242 20.0714ZM63.6867 8.48H63.4067V10.48H63.6867V8.48ZM62.4483 9.19459L59.2083 20.0746L61.1251 20.6454L64.3651 9.76541L62.4483 9.19459ZM80.3439 31H79.3439V32H80.3439V31ZM80.3439 3.48V2.48H79.3439V3.48H80.3439ZM87.3039 3.48H88.3039V2.48H87.3039V3.48ZM87.3039 31V32H88.3039V31H87.3039ZM81.3439 31V3.48H79.3439V31H81.3439ZM80.3439 4.48H87.3039V2.48H80.3439V4.48ZM86.3039 3.48V31H88.3039V3.48H86.3039ZM87.3039 30H80.3439V32H87.3039V30ZM93.0392 31H92.0392V32H93.0392V31ZM93.0392 3.48V2.48H92.0392V3.48H93.0392ZM100.199 3.48L101.054 2.96108L100.762 2.48H100.199V3.48ZM109.159 18.24L108.304 18.7589L108.596 19.24H109.159V18.24ZM109.359 18.24V19.24H110.359V18.24H109.359ZM109.359 3.48V2.48H108.359V3.48H109.359ZM116.039 3.48H117.039V2.48H116.039V3.48ZM116.039 31V32H117.039V31H116.039ZM109.519 31L108.66 31.5117L108.951 32H109.519V31ZM99.9192 14.88L100.778 14.3683L100.488 13.88H99.9192V14.88ZM99.7192 14.88V13.88H98.7192V14.88H99.7192ZM99.7192 31V32H100.719V31H99.7192ZM94.0392 31V3.48H92.0392V31H94.0392ZM93.0392 4.48H100.199V2.48H93.0392V4.48ZM99.3444 3.99892L108.304 18.7589L110.014 17.7211L101.054 2.96108L99.3444 3.99892ZM109.159 19.24H109.359V17.24H109.159V19.24ZM110.359 18.24V3.48H108.359V18.24H110.359ZM109.359 4.48H116.039V2.48H109.359V4.48ZM115.039 3.48V31H117.039V3.48H115.039ZM116.039 30H109.519V32H116.039V30ZM110.378 30.4883L100.778 14.3683L99.06 15.3917L108.66 31.5117L110.378 30.4883ZM99.9192 13.88H99.7192V15.88H99.9192V13.88ZM98.7192 14.88V31H100.719V14.88H98.7192ZM99.7192 30H93.0392V32H99.7192V30ZM127.426 12.9531L126.448 13.1631L126.888 15.2114L128.204 13.5812L127.426 12.9531ZM138.246 10.6484L137.741 11.5115L137.747 11.5151L137.753 11.5186L138.246 10.6484ZM140.668 13.3242L139.758 13.7388L140.429 15.2109L141.446 13.9529L140.668 13.3242ZM143.949 10.6094L144.389 11.5077L144.396 11.5038L143.949 10.6094ZM153.168 11.6445L152.439 12.3292L152.443 12.3329L153.168 11.6445ZM154.984 31V32H155.984V31H154.984ZM148.988 31H147.988V32H148.988V31ZM143.305 14.5742L143.769 15.4598L143.781 15.4538L143.305 14.5742ZM141.312 16.3516L140.491 15.7809L140.312 16.0382V16.3516H141.312ZM141.352 16.7227L140.36 16.8548L140.362 16.8641L141.352 16.7227ZM141.391 31V32H142.391V31H141.391ZM135.395 31H134.395V32H135.395V31ZM129.73 14.5938L130.2 15.4766L130.211 15.4706L129.73 14.5938ZM127.797 16.3516L126.958 15.8071L126.797 16.0555V16.3516H127.797ZM127.797 31V32H128.797V31H127.797ZM121.801 31H120.801V32H121.801V31ZM121.801 10.043V9.04297H120.801V10.043H121.801ZM126.801 10.043L127.778 9.83299L127.609 9.04297H126.801V10.043ZM128.204 13.5812C129.749 11.667 131.781 10.7109 134.398 10.7109V8.71094C131.208 8.71094 128.592 9.91633 126.648 12.325L128.204 13.5812ZM134.398 10.7109C135.756 10.7109 136.856 10.9933 137.741 11.5115L138.751 9.78542C137.501 9.05357 136.036 8.71094 134.398 8.71094V10.7109ZM137.753 11.5186C138.643 12.0225 139.308 12.7514 139.758 13.7388L141.578 12.9097C140.96 11.5532 140.01 10.4983 138.739 9.77827L137.753 11.5186ZM141.446 13.9529C142.36 12.8222 143.343 12.019 144.389 11.5077L143.51 9.71108C142.159 10.3717 140.955 11.3783 139.89 12.6955L141.446 13.9529ZM144.396 11.5038C145.44 10.9821 146.632 10.7109 147.992 10.7109V8.71094C146.358 8.71094 144.854 9.03873 143.502 9.71495L144.396 11.5038ZM147.992 10.7109C150.034 10.7109 151.465 11.2919 152.439 12.3292L153.897 10.9599C152.449 9.41899 150.43 8.71094 147.992 8.71094V10.7109ZM152.443 12.3329C153.425 13.3682 153.984 14.8994 153.984 17.0742H155.984C155.984 14.5616 155.333 12.4729 153.893 10.9562L152.443 12.3329ZM153.984 17.0742V31H155.984V17.0742H153.984ZM154.984 30H148.988V32H154.984V30ZM149.988 31V17.4062H147.988V31H149.988ZM149.988 17.4062C149.988 16.092 149.737 14.9075 149.016 14.089L147.515 15.411C147.758 15.6862 147.988 16.2726 147.988 17.4062H149.988ZM149.016 14.089C148.27 13.2422 147.16 12.9297 145.941 12.9297V14.9297C146.858 14.9297 147.298 15.1641 147.515 15.411L149.016 14.089ZM145.941 12.9297C144.823 12.9297 143.779 13.1806 142.829 13.6947L143.781 15.4538C144.419 15.1084 145.133 14.9297 145.941 14.9297V12.9297ZM142.84 13.6887C141.897 14.1833 141.113 14.8864 140.491 15.7809L142.134 16.9222C142.58 16.2802 143.124 15.7984 143.769 15.4598L142.84 13.6887ZM140.312 16.3516C140.312 16.4844 140.337 16.6817 140.36 16.8548L142.343 16.5905C142.33 16.4974 142.322 16.4277 142.317 16.3787C142.314 16.3542 142.313 16.3387 142.312 16.3302C142.311 16.3185 142.312 16.3289 142.312 16.3516H140.312ZM140.362 16.8641C140.379 16.9868 140.391 17.1522 140.391 17.3672H142.391C142.391 17.0874 142.376 16.8231 142.342 16.5812L140.362 16.8641ZM140.391 17.3672V31H142.391V17.3672H140.391ZM141.391 30H135.395V32H141.391V30ZM136.395 31V17.4062H134.395V31H136.395ZM136.395 17.4062C136.395 16.092 136.143 14.9075 135.422 14.089L133.922 15.411C134.164 15.6862 134.395 16.2726 134.395 17.4062H136.395ZM135.422 14.089C134.676 13.2422 133.567 12.9297 132.348 12.9297V14.9297C133.264 14.9297 133.704 15.1641 133.922 15.411L135.422 14.089ZM132.348 12.9297C131.245 12.9297 130.207 13.1919 129.25 13.7169L130.211 15.4706C130.868 15.1102 131.575 14.9297 132.348 14.9297V12.9297ZM129.261 13.711C128.309 14.2176 127.535 14.9178 126.958 15.8071L128.636 16.896C129.022 16.3009 129.537 15.8293 130.2 15.4765L129.261 13.711ZM126.797 16.3516V31H128.797V16.3516H126.797ZM127.797 30H121.801V32H127.797V30ZM122.801 31V10.043H120.801V31H122.801ZM121.801 11.043H126.801V9.04297H121.801V11.043ZM125.823 10.2529L126.448 13.1631L128.403 12.7431L127.778 9.83299L125.823 10.2529ZM175.062 11.8203L174.383 12.5542L175.062 11.8203ZM177.426 31V32H178.426V31H177.426ZM172.465 31L171.501 31.2657L171.703 32H172.465V31ZM171.781 28.5195L172.745 28.2538L172.273 26.5402L171.054 27.8335L171.781 28.5195ZM168.871 30.6094L169.273 31.525L169.278 31.5227L168.871 30.6094ZM160.277 29.6328L159.614 30.3811L159.618 30.3844L160.277 29.6328ZM161.137 20.0039L160.585 19.17L160.582 19.1719L161.137 20.0039ZM171.43 18.168V19.168H172.43V18.168H171.43ZM171.43 17.6406H172.43V17.6245L172.429 17.6084L171.43 17.6406ZM164.145 14.418L164.357 15.3952L164.367 15.3929L164.145 14.418ZM160.902 15.4336L159.948 15.7332L160.281 16.7919L161.299 16.3515L160.902 15.4336ZM159.633 11.3906L159.257 10.464L158.403 10.8106L158.679 11.6902L159.633 11.3906ZM163.988 10.1016L164.181 11.0828L164.189 11.0812L163.988 10.1016ZM165.395 22.3281L164.87 21.4769L164.865 21.4801L165.395 22.3281ZM164.77 26.7422L164.111 27.4948L164.116 27.4995L164.122 27.5041L164.77 26.7422ZM169.438 26.8398L169.008 25.9367L169.002 25.9395L169.438 26.8398ZM171.43 25.3164L172.197 25.9581L172.43 25.6796V25.3164H171.43ZM171.43 21.4492H172.43V20.4492H171.43V21.4492ZM168.266 10.6328C171.065 10.6328 173.053 11.3225 174.383 12.5542L175.742 11.0864C173.921 9.4015 171.377 8.63281 168.266 8.63281V10.6328ZM174.383 12.5542C175.699 13.7718 176.426 15.5872 176.426 18.168H178.426C178.426 15.2019 177.577 12.7855 175.742 11.0864L174.383 12.5542ZM176.426 18.168V31H178.426V18.168H176.426ZM177.426 30H172.465V32H177.426V30ZM173.429 30.7343L172.745 28.2538L170.817 28.7852L171.501 31.2657L173.429 30.7343ZM171.054 27.8335C170.28 28.6545 169.417 29.2712 168.464 29.696L169.278 31.5227C170.487 30.984 171.564 30.2075 172.509 29.2055L171.054 27.8335ZM168.469 29.6937C167.534 30.1041 166.526 30.3125 165.434 30.3125V32.3125C166.789 32.3125 168.072 32.0522 169.273 31.525L168.469 29.6937ZM165.434 30.3125C163.447 30.3125 161.985 29.801 160.937 28.8812L159.618 30.3844C161.122 31.7043 163.098 32.3125 165.434 32.3125V30.3125ZM160.941 28.8846C159.919 27.9783 159.383 26.7608 159.383 25.1211H157.383C157.383 27.2574 158.11 29.0478 159.614 30.3811L160.941 28.8846ZM159.383 25.1211C159.383 23.2714 160.131 21.8764 161.691 20.836L160.582 19.1719C158.471 20.5793 157.383 22.5957 157.383 25.1211H159.383ZM161.689 20.8378C163.312 19.7632 165.669 19.168 168.871 19.168V17.168C165.458 17.168 162.659 17.7967 160.585 19.1701L161.689 20.8378ZM168.871 19.168H171.43V17.168H168.871V19.168ZM172.43 18.168V17.6406H170.43V18.168H172.43ZM172.429 17.6084C172.384 16.215 171.957 15.0074 171.002 14.1659C170.065 13.3394 168.777 13.0078 167.309 13.0078V15.0078C168.509 15.0078 169.243 15.2817 169.68 15.6662C170.099 16.0356 170.397 16.6444 170.43 17.6729L172.429 17.6084ZM167.309 13.0078C166.302 13.0078 165.169 13.1583 163.922 13.443L164.367 15.3929C165.515 15.1308 166.493 15.0078 167.309 15.0078V13.0078ZM163.932 13.4408C162.681 13.7127 161.537 14.0695 160.505 14.5157L161.299 16.3515C162.194 15.9643 163.212 15.644 164.357 15.3951L163.932 13.4408ZM161.856 15.134L160.587 11.091L158.679 11.6902L159.948 15.7332L161.856 15.134ZM160.009 12.3173C161.327 11.7824 162.718 11.3705 164.181 11.0828L163.795 9.12034C162.212 9.43161 160.699 9.8791 159.257 10.464L160.009 12.3173ZM164.189 11.0812C165.657 10.78 167.015 10.6328 168.266 10.6328V8.63281C166.86 8.63281 165.366 8.79813 163.787 9.12196L164.189 11.0812ZM169.379 20.4492C167.578 20.4492 166.04 20.7552 164.87 21.4769L165.919 23.1794C166.65 22.7292 167.768 22.4492 169.379 22.4492V20.4492ZM164.865 21.4801C163.656 22.2353 162.988 23.3583 162.988 24.7695H164.988C164.988 24.0974 165.258 23.5928 165.925 23.1761L164.865 21.4801ZM162.988 24.7695C162.988 25.8418 163.322 26.8046 164.111 27.4948L165.428 25.9896C165.175 25.7684 164.988 25.416 164.988 24.7695H162.988ZM164.122 27.5041C164.883 28.1512 165.881 28.4062 166.977 28.4062V26.4062C166.171 26.4062 165.698 26.2186 165.417 25.9802L164.122 27.5041ZM166.977 28.4062C167.988 28.4062 168.957 28.1827 169.873 27.7402L169.002 25.9395C168.355 26.2522 167.684 26.4062 166.977 26.4062V28.4062ZM169.867 27.743C170.784 27.3072 171.565 26.7128 172.197 25.9581L170.663 24.6747C170.227 25.196 169.68 25.6173 169.008 25.9367L169.867 27.743ZM172.43 25.3164V21.4492H170.43V25.3164H172.43ZM171.43 20.4492H169.379V22.4492H171.43V20.4492ZM182.621 1.60547V0.605469H181.621V1.60547H182.621ZM188.617 1.60547H189.617V0.605469H188.617V1.60547ZM188.617 7.07422V8.07422H189.617V7.07422H188.617ZM182.621 7.07422H181.621V8.07422H182.621V7.07422ZM182.621 10.2773V9.27734H181.621V10.2773H182.621ZM188.617 10.2773H189.617V9.27734H188.617V10.2773ZM188.617 31V32H189.617V31H188.617ZM182.621 31H181.621V32H182.621V31ZM182.621 2.60547H188.617V0.605469H182.621V2.60547ZM187.617 1.60547V7.07422H189.617V1.60547H187.617ZM188.617 6.07422H182.621V8.07422H188.617V6.07422ZM183.621 7.07422V1.60547H181.621V7.07422H183.621ZM182.621 11.2773H188.617V9.27734H182.621V11.2773ZM187.617 10.2773V31H189.617V10.2773H187.617ZM188.617 30H182.621V32H188.617V30ZM183.621 31V10.2773H181.621V31H183.621ZM194.496 0.921875V-0.078125H193.496V0.921875H194.496ZM200.492 0.921875H201.492V-0.078125H200.492V0.921875ZM200.492 31V32H201.492V31H200.492ZM194.496 31H193.496V32H194.496V31ZM194.496 1.92188H200.492V-0.078125H194.496V1.92188ZM199.492 0.921875V31H201.492V0.921875H199.492ZM200.492 30H194.496V32H200.492V30ZM195.496 31V0.921875H193.496V31H195.496Z" fill="black"/>
</svg>
