<svg width="227" height="38" viewBox="0 0 227 38" fill="none" xmlns="http://www.w3.org/2000/svg">
<path d="M0.734375 15.6016V13.9609C0.734375 9.20833 1.85417 5.71224 4.09375 3.47266C6.33333 1.22005 9.25651 0.09375 12.8633 0.09375C16.3008 0.09375 18.9961 0.953125 20.9492 2.67188C22.9154 4.3776 23.8984 6.77344 23.8984 9.85938V11.0312H17.5898V9.48828C17.5898 7.97786 17.1992 6.81901 16.418 6.01172C15.6367 5.20443 14.4648 4.80078 12.9023 4.80078C11.2487 4.80078 9.9401 5.41276 8.97656 6.63672C8.02604 7.86068 7.55078 9.83984 7.55078 12.5742V16.9883C7.55078 19.6315 8.02604 21.5977 8.97656 22.8867C9.9401 24.1758 11.2682 24.8203 12.9609 24.8203C14.4714 24.8203 15.6042 24.3971 16.3594 23.5508C17.1276 22.6914 17.5312 21.4479 17.5703 19.8203L17.5898 18.5898H23.8984L23.8789 19.9766C23.8268 22.8411 22.8372 25.1393 20.9102 26.8711C18.9961 28.6029 16.3073 29.4688 12.8438 29.4688C9.14583 29.4688 6.20312 28.3294 4.01562 26.0508C1.82812 23.7721 0.734375 20.2891 0.734375 15.6016ZM27.1406 29V0.5625H38.1562C41.151 0.5625 43.5013 1.36979 45.207 2.98438C46.9258 4.59896 47.7852 6.77995 47.7852 9.52734C47.7852 12.3268 46.8997 14.5664 45.1289 16.2461C43.3581 17.9258 41.0143 18.7656 38.0977 18.7656H33.625V29H27.1406ZM33.625 14.3125H37.1602C38.6706 14.3125 39.7318 13.8958 40.3438 13.0625C40.9557 12.2292 41.2617 11.1289 41.2617 9.76172C41.2617 8.40755 40.9557 7.32031 40.3438 6.5C39.7318 5.67969 38.6706 5.26953 37.1602 5.26953H33.625V14.3125ZM41.8867 29L36.0078 16.2852L42.1992 15.1914L49.0352 29H41.8867ZM57.1406 29V18.3945L47.8242 0.5625H54.9141L59.8945 10.3672C60.0638 10.7057 60.207 11.0247 60.3242 11.3242C60.4544 11.6107 60.5781 11.9102 60.6953 12.2227H60.8125C60.9167 11.9102 61.0339 11.6107 61.1641 11.3242C61.2943 11.0247 61.444 10.7057 61.6133 10.3672L66.5938 0.5625H72.8828L63.6836 18.2383V29H57.1406ZM74.8359 29V0.5625H86.3008C89.3737 0.5625 91.724 1.41536 93.3516 3.12109C94.9922 4.82682 95.8125 7.13802 95.8125 10.0547C95.8125 12.9844 95.0052 15.3086 93.3906 17.0273C91.776 18.7331 89.3867 19.5859 86.2227 19.5859H81.3203V29H74.8359ZM81.3203 15.0156H85.0898C86.6784 15.0156 87.7852 14.5664 88.4102 13.668C89.0352 12.7565 89.3477 11.5846 89.3477 10.1523C89.3477 8.73307 89.0352 7.58073 88.4102 6.69531C87.7852 5.79688 86.6784 5.34115 85.0898 5.32812H81.3203V15.0156ZM96.8477 5.62109V0.5625H119.211V5.62109H111.32V29H104.777V5.62109H96.8477ZM120.344 15.6016V13.9609C120.344 9.2474 121.477 5.75781 123.742 3.49219C126.021 1.22656 128.944 0.09375 132.512 0.09375C136.079 0.09375 139.003 1.22656 141.281 3.49219C143.56 5.75781 144.699 9.2474 144.699 13.9609V15.6016C144.699 20.3151 143.56 23.8047 141.281 26.0703C139.003 28.3359 136.079 29.4688 132.512 29.4688C128.944 29.4688 126.021 28.3359 123.742 26.0703C121.477 23.8047 120.344 20.3151 120.344 15.6016ZM127.062 16.9492C127.062 19.6966 127.544 21.6953 128.508 22.9453C129.484 24.1953 130.819 24.8203 132.512 24.8203C134.191 24.8203 135.52 24.1953 136.496 22.9453C137.486 21.6953 137.98 19.6966 137.98 16.9492V12.6328C137.98 9.89844 137.486 7.91276 136.496 6.67578C135.52 5.42578 134.191 4.80078 132.512 4.80078C130.819 4.80078 129.484 5.42578 128.508 6.67578C127.544 7.91276 127.062 9.89844 127.062 12.6328V16.9492Z" fill="#FEC901"/>
<path d="M148.234 37.2617V9.85938H154.27L154.328 12.1055L154.406 12.0859C154.862 11.3307 155.604 10.6992 156.633 10.1914C157.661 9.67057 158.82 9.41016 160.109 9.41016C162.57 9.41016 164.549 10.2695 166.047 11.9883C167.544 13.694 168.293 16.0443 168.293 19.0391V19.6641C168.293 22.6198 167.538 24.9831 166.027 26.7539C164.53 28.5117 162.57 29.3906 160.148 29.3906C158.846 29.3906 157.72 29.1823 156.77 28.7656C155.819 28.3359 155.064 27.763 154.504 27.0469V37.2617H148.234ZM154.504 22.4375C154.777 23.1016 155.233 23.6875 155.871 24.1953C156.509 24.6901 157.271 24.9375 158.156 24.9375C159.432 24.9375 160.376 24.4883 160.988 23.5898C161.613 22.6784 161.926 21.4674 161.926 19.957V18.8242C161.926 17.2878 161.613 16.0898 160.988 15.2305C160.376 14.3581 159.432 13.9219 158.156 13.9219C157.245 13.9219 156.477 14.1693 155.852 14.6641C155.227 15.1458 154.777 15.7188 154.504 16.3828V22.4375ZM170.422 19.7031V19.0781C170.422 16.1094 171.379 13.7331 173.293 11.9492C175.207 10.1654 177.727 9.27344 180.852 9.27344C183.977 9.27344 186.49 10.1654 188.391 11.9492C190.305 13.7331 191.262 16.1094 191.262 19.0781V19.7031C191.262 22.6849 190.305 25.0677 188.391 26.8516C186.49 28.6354 183.977 29.5273 180.852 29.5273C177.714 29.5273 175.188 28.6354 173.273 26.8516C171.372 25.0677 170.422 22.6849 170.422 19.7031ZM176.809 18.8047V19.957C176.809 21.5326 177.154 22.7695 177.844 23.668C178.534 24.5534 179.53 24.9961 180.832 24.9961C182.147 24.9961 183.15 24.5534 183.84 23.668C184.53 22.7695 184.875 21.5326 184.875 19.957V18.8047C184.875 17.2552 184.523 16.0443 183.82 15.1719C183.13 14.2865 182.134 13.8438 180.832 13.8438C179.543 13.8438 178.547 14.2865 177.844 15.1719C177.154 16.0443 176.809 17.2552 176.809 18.8047ZM193.488 22.8672L199.27 22.9062V23.2578C199.27 24.1562 199.562 24.7943 200.148 25.1719C200.747 25.5495 201.555 25.7383 202.57 25.7383C203.56 25.7383 204.296 25.5755 204.777 25.25C205.272 24.9115 205.52 24.4362 205.52 23.8242C205.52 23.2122 205.22 22.75 204.621 22.4375C204.035 22.112 202.798 21.7669 200.91 21.4023C198.501 20.9336 196.743 20.2109 195.637 19.2344C194.543 18.2448 193.996 16.9232 193.996 15.2695C193.996 13.3685 194.764 11.8971 196.301 10.8555C197.85 9.80078 199.973 9.27344 202.668 9.27344C205.337 9.27344 207.447 9.82031 208.996 10.9141C210.546 11.9948 211.32 13.5052 211.32 15.4453V15.7773H205.539V15.4062C205.539 14.651 205.285 14.0911 204.777 13.7266C204.283 13.349 203.547 13.1602 202.57 13.1602C201.659 13.1602 201.001 13.3099 200.598 13.6094C200.194 13.8958 199.992 14.306 199.992 14.8398C199.992 15.3477 200.285 15.7578 200.871 16.0703C201.47 16.3828 202.72 16.7214 204.621 17.0859C207.108 17.5417 208.918 18.2448 210.051 19.1953C211.184 20.1328 211.75 21.4349 211.75 23.1016C211.75 25.1849 210.975 26.7799 209.426 27.8867C207.889 28.9805 205.637 29.5273 202.668 29.5273C199.764 29.5273 197.518 28.974 195.93 27.8672C194.341 26.7604 193.527 25.1914 193.488 23.1602V22.8672ZM213.078 14.3906V9.85938H226.086V14.3906H213.078ZM216.008 23.1406V11.3242L216.125 10.9336V4.39062H222.199V22.1641C222.199 23.2969 222.368 24.0456 222.707 24.4102C223.046 24.7617 223.56 24.9375 224.25 24.9375C224.576 24.9375 224.888 24.9115 225.188 24.8594C225.487 24.7943 225.78 24.7096 226.066 24.6055V28.9414C225.728 29.0716 225.227 29.1888 224.562 29.293C223.898 29.4102 223.098 29.4688 222.16 29.4688C220.233 29.4688 218.723 28.9674 217.629 27.9648C216.548 26.9622 216.008 25.3542 216.008 23.1406Z" fill="#01A0C7"/>
<path d="M4.09375 3.47266L5.50797 4.88688L5.51205 4.88276L4.09375 3.47266ZM20.9492 2.67188L19.6279 4.17334L19.6386 4.18259L20.9492 2.67188ZM23.8984 11.0312V13.0312H25.8984V11.0312H23.8984ZM17.5898 11.0312H15.5898V13.0312H17.5898V11.0312ZM8.97656 6.63672L7.40505 5.39957L7.39696 5.41L8.97656 6.63672ZM8.97656 22.8867L7.36683 24.0737L7.37463 24.0841L8.97656 22.8867ZM16.3594 23.5508L14.8683 22.2178L14.8671 22.2192L16.3594 23.5508ZM17.5703 19.8203L19.5697 19.8683L19.5699 19.8602L19.5701 19.8521L17.5703 19.8203ZM17.5898 18.5898V16.5898H15.6213L15.5901 18.5581L17.5898 18.5898ZM23.8984 18.5898L25.8982 18.618L25.9268 16.5898H23.8984V18.5898ZM23.8789 19.9766L25.8786 20.0129L25.8787 20.0047L23.8789 19.9766ZM20.9102 26.8711L19.5733 25.3835L19.5683 25.388L20.9102 26.8711ZM4.01562 26.0508L2.57285 27.4358L4.01562 26.0508ZM2.73438 15.6016V13.9609H-1.26562V15.6016H2.73438ZM2.73438 13.9609C2.73438 9.47643 3.79525 6.59958 5.50797 4.88687L2.67953 2.05844C-0.0869217 4.8249 -1.26562 8.94024 -1.26562 13.9609H2.73438ZM5.51205 4.88276C7.32423 3.06005 9.71037 2.09375 12.8633 2.09375V-1.90625C8.80266 -1.90625 5.34243 -0.619946 2.67545 2.06255L5.51205 4.88276ZM12.8633 2.09375C15.9733 2.09375 18.1439 2.86728 19.628 4.1733L22.2705 1.17045C19.8483 -0.961035 16.6283 -1.90625 12.8633 -1.90625V2.09375ZM19.6386 4.18259C21.0848 5.43724 21.8984 7.23482 21.8984 9.85938H25.8984C25.8984 6.31205 24.7459 3.31797 22.2598 1.16116L19.6386 4.18259ZM21.8984 9.85938V11.0312H25.8984V9.85938H21.8984ZM23.8984 9.03125H17.5898V13.0312H23.8984V9.03125ZM19.5898 11.0312V9.48828H15.5898V11.0312H19.5898ZM19.5898 9.48828C19.5898 7.64205 19.1074 5.91486 17.8552 4.62088L14.9808 7.40256C15.291 7.72316 15.5898 8.31368 15.5898 9.48828H19.5898ZM17.8552 4.62088C16.5693 3.29212 14.7901 2.80078 12.9023 2.80078V6.80078C14.1396 6.80078 14.7042 7.11673 14.9808 7.40256L17.8552 4.62088ZM12.9023 2.80078C10.6793 2.80078 8.77403 3.66067 7.40509 5.3996L10.548 7.87384C11.1062 7.16485 11.8181 6.80078 12.9023 6.80078V2.80078ZM7.39696 5.41C6.03333 7.16589 5.55078 9.69823 5.55078 12.5742H9.55078C9.55078 9.98146 10.0188 8.55546 10.5562 7.86344L7.39696 5.41ZM5.55078 12.5742V16.9883H9.55078V12.5742H5.55078ZM5.55078 16.9883C5.55078 19.8053 6.04524 22.2813 7.36686 24.0737L10.5863 21.6998C10.0068 20.914 9.55078 19.4578 9.55078 16.9883H5.55078ZM7.37463 24.0841C8.73803 25.9081 10.6758 26.8203 12.9609 26.8203V22.8203C11.8607 22.8203 11.1422 22.4434 10.5785 21.6893L7.37463 24.0841ZM12.9609 26.8203C14.8424 26.8203 16.6021 26.2827 17.8517 24.8824L14.8671 22.2192C14.6062 22.5115 14.1003 22.8203 12.9609 22.8203V26.8203ZM17.8504 24.8837C19.0442 23.5483 19.5239 21.7774 19.5697 19.8683L15.5709 19.7723C15.5386 21.1185 15.211 21.8345 14.8683 22.2179L17.8504 24.8837ZM19.5701 19.8521L19.5896 18.6216L15.5901 18.5581L15.5706 19.7886L19.5701 19.8521ZM17.5898 20.5898H23.8984V16.5898H17.5898V20.5898ZM21.8986 18.5617L21.8791 19.9484L25.8787 20.0047L25.8982 18.618L21.8986 18.5617ZM21.8792 19.9402C21.8361 22.3152 21.0417 24.064 19.5733 25.3835L22.247 28.3587C24.6328 26.2146 25.8176 23.3671 25.8786 20.0129L21.8792 19.9402ZM19.5683 25.388C18.1323 26.6873 15.9835 27.4688 12.8438 27.4688V31.4688C16.631 31.4688 19.8599 30.5184 22.252 28.3542L19.5683 25.388ZM12.8438 27.4688C9.5895 27.4688 7.20415 26.4842 5.4584 24.6657L2.57285 27.4358C5.2021 30.1746 8.70217 31.4688 12.8438 31.4688V27.4688ZM5.4584 24.6657C3.76889 22.9058 2.73438 20.0192 2.73438 15.6016H-1.26562C-1.26562 20.5589 -0.11264 24.6385 2.57285 27.4358L5.4584 24.6657ZM27.1406 29H25.1406V31H27.1406V29ZM27.1406 0.5625V-1.4375H25.1406V0.5625H27.1406ZM45.207 2.98438L43.8321 4.43687L43.8377 4.44207L45.207 2.98438ZM45.1289 16.2461L43.7525 14.795L45.1289 16.2461ZM33.625 18.7656V16.7656H31.625V18.7656H33.625ZM33.625 29V31H35.625V29H33.625ZM33.625 14.3125H31.625V16.3125H33.625V14.3125ZM33.625 5.26953V3.26953H31.625V5.26953H33.625ZM41.8867 29L40.0714 29.8394L40.608 31H41.8867V29ZM36.0078 16.2852L35.6599 14.3157L33.1026 14.7674L34.1925 17.1245L36.0078 16.2852ZM42.1992 15.1914L43.9916 14.3041L43.3268 12.9612L41.8513 13.2219L42.1992 15.1914ZM49.0352 29V31H52.2569L50.8275 28.1127L49.0352 29ZM29.1406 29V0.5625H25.1406V29H29.1406ZM27.1406 2.5625H38.1562V-1.4375H27.1406V2.5625ZM38.1562 2.5625C40.786 2.5625 42.5921 3.26303 43.8322 4.43686L46.5819 1.53189C44.4105 -0.523443 41.5161 -1.4375 38.1562 -1.4375V2.5625ZM43.8377 4.44207C45.0869 5.61555 45.7852 7.23264 45.7852 9.52734H49.7852C49.7852 6.32726 48.7647 3.58236 46.5764 1.52668L43.8377 4.44207ZM45.7852 9.52734C45.7852 11.8663 45.0654 13.5497 43.7525 14.795L46.5053 17.6972C48.7341 15.5831 49.7852 12.7873 49.7852 9.52734H45.7852ZM43.7525 14.795C42.4238 16.0554 40.6083 16.7656 38.0977 16.7656V20.7656C41.4203 20.7656 44.2924 19.7962 46.5053 17.6972L43.7525 14.795ZM38.0977 16.7656H33.625V20.7656H38.0977V16.7656ZM31.625 18.7656V29H35.625V18.7656H31.625ZM33.625 27H27.1406V31H33.625V27ZM33.625 16.3125H37.1602V12.3125H33.625V16.3125ZM37.1602 16.3125C38.9987 16.3125 40.8156 15.7989 41.9558 14.2463L38.7317 11.8787C38.648 11.9927 38.3425 12.3125 37.1602 12.3125V16.3125ZM41.9558 14.2463C42.8901 12.9741 43.2617 11.4184 43.2617 9.76172H39.2617C39.2617 10.8394 39.0214 11.4842 38.7317 11.8787L41.9558 14.2463ZM43.2617 9.76172C43.2617 8.11515 42.8886 6.56649 41.9468 5.30407L38.7407 7.69593C39.0229 8.07413 39.2617 8.69995 39.2617 9.76172H43.2617ZM41.9468 5.30407C40.8026 3.77031 38.9882 3.26953 37.1602 3.26953V7.26953C38.353 7.26953 38.661 7.58907 38.7407 7.69593L41.9468 5.30407ZM37.1602 3.26953H33.625V7.26953H37.1602V3.26953ZM31.625 5.26953V14.3125H35.625V5.26953H31.625ZM43.7021 28.1606L37.8232 15.4458L34.1925 17.1245L40.0714 29.8394L43.7021 28.1606ZM36.3557 18.2547L42.5471 17.1609L41.8513 13.2219L35.6599 14.3157L36.3557 18.2547ZM40.4068 16.0787L47.2428 29.8873L50.8275 28.1127L43.9916 14.3041L40.4068 16.0787ZM49.0352 27H41.8867V31H49.0352V27ZM57.1406 29H55.1406V31H57.1406V29ZM57.1406 18.3945H59.1406V17.9036L58.9133 17.4684L57.1406 18.3945ZM47.8242 0.5625V-1.4375H44.5228L46.0516 1.48863L47.8242 0.5625ZM54.9141 0.5625L56.6972 -0.343275L56.1414 -1.4375H54.9141V0.5625ZM59.8945 10.3672L61.6834 9.47274L61.6777 9.46141L59.8945 10.3672ZM60.3242 11.3242L58.4617 12.053L58.4813 12.103L58.5035 12.1518L60.3242 11.3242ZM60.6953 12.2227L58.8226 12.9249L59.3093 14.2227H60.6953V12.2227ZM60.8125 12.2227V14.2227H62.254L62.7099 12.8551L60.8125 12.2227ZM61.1641 11.3242L62.9848 12.1518L62.9916 12.1368L62.9982 12.1217L61.1641 11.3242ZM61.6133 10.3672L59.8301 9.4614L59.8244 9.47276L61.6133 10.3672ZM66.5938 0.5625V-1.4375H65.3664L64.8106 -0.343275L66.5938 0.5625ZM72.8828 0.5625L74.6569 1.48582L76.1783 -1.4375H72.8828V0.5625ZM63.6836 18.2383L61.9095 17.315L61.6836 17.749V18.2383H63.6836ZM63.6836 29V31H65.6836V29H63.6836ZM59.1406 29V18.3945H55.1406V29H59.1406ZM58.9133 17.4684L49.5969 -0.363626L46.0516 1.48863L55.368 19.3207L58.9133 17.4684ZM47.8242 2.5625H54.9141V-1.4375H47.8242V2.5625ZM53.1309 1.46828L58.1114 11.273L61.6777 9.46141L56.6972 -0.343275L53.1309 1.46828ZM58.1057 11.2616C58.2525 11.5552 58.37 11.8186 58.4617 12.053L62.1867 10.5954C62.0441 10.2309 61.8751 9.85621 61.6834 9.47276L58.1057 11.2616ZM58.5035 12.1518C58.6139 12.3947 58.7204 12.6522 58.8226 12.9249L62.568 11.5204C62.4359 11.1681 62.295 10.8266 62.145 10.4966L58.5035 12.1518ZM60.6953 14.2227H60.8125V10.2227H60.6953V14.2227ZM62.7099 12.8551C62.7929 12.6059 62.8848 12.3717 62.9848 12.1518L59.3433 10.4966C59.1829 10.8496 59.0404 11.2144 58.9151 11.5902L62.7099 12.8551ZM62.9982 12.1217C63.1122 11.8596 63.2464 11.5731 63.4021 11.2616L59.8244 9.47276C59.6416 9.83834 59.4764 10.1899 59.3299 10.5268L62.9982 12.1217ZM63.3964 11.273L68.3769 1.46828L64.8106 -0.343275L59.8301 9.46141L63.3964 11.273ZM66.5938 2.5625H72.8828V-1.4375H66.5938V2.5625ZM71.1087 -0.360823L61.9095 17.315L65.4577 19.1616L74.6569 1.48582L71.1087 -0.360823ZM61.6836 18.2383V29H65.6836V18.2383H61.6836ZM63.6836 27H57.1406V31H63.6836V27ZM74.8359 29H72.8359V31H74.8359V29ZM74.8359 0.5625V-1.4375H72.8359V0.5625H74.8359ZM93.3516 3.12109L91.9046 4.50179L91.9101 4.50753L93.3516 3.12109ZM93.3906 17.0273L94.8431 18.4022L94.8483 18.3967L93.3906 17.0273ZM81.3203 19.5859V17.5859H79.3203V19.5859H81.3203ZM81.3203 29V31H83.3203V29H81.3203ZM81.3203 15.0156H79.3203V17.0156H81.3203V15.0156ZM88.4102 13.668L90.052 14.8101L90.0596 14.799L88.4102 13.668ZM88.4102 6.69531L86.7683 7.83747L86.7762 7.84868L88.4102 6.69531ZM85.0898 5.32812L85.1062 3.32819L85.098 3.32812H85.0898V5.32812ZM81.3203 5.32812V3.32812H79.3203V5.32812H81.3203ZM76.8359 29V0.5625H72.8359V29H76.8359ZM74.8359 2.5625H86.3008V-1.4375H74.8359V2.5625ZM86.3008 2.5625C89.001 2.5625 90.7597 3.30192 91.9046 4.50178L94.7985 1.7404C92.6882 -0.471186 89.7464 -1.4375 86.3008 -1.4375V2.5625ZM91.9101 4.50753C93.1132 5.75837 93.8125 7.52826 93.8125 10.0547H97.8125C97.8125 6.74779 96.8712 3.89528 94.793 1.73466L91.9101 4.50753ZM93.8125 10.0547C93.8125 12.6048 93.1197 14.3947 91.9329 15.658L94.8483 18.3967C96.8907 16.2225 97.8125 13.3639 97.8125 10.0547H93.8125ZM91.9381 15.6525C90.8187 16.8351 89.0353 17.5859 86.2227 17.5859V21.5859C89.7381 21.5859 92.7334 20.631 94.8431 18.4022L91.9381 15.6525ZM86.2227 17.5859H81.3203V21.5859H86.2227V17.5859ZM79.3203 19.5859V29H83.3203V19.5859H79.3203ZM81.3203 27H74.8359V31H81.3203V27ZM81.3203 17.0156H85.0898V13.0156H81.3203V17.0156ZM85.0898 17.0156C87.0184 17.0156 88.9036 16.4608 90.052 14.8101L86.7683 12.5258C86.6667 12.672 86.3383 13.0156 85.0898 13.0156V17.0156ZM90.0596 14.799C90.9719 13.4686 91.3477 11.8698 91.3477 10.1523H87.3477C87.3477 11.2995 87.0984 12.0444 86.7607 12.5369L90.0596 14.799ZM91.3477 10.1523C91.3477 8.44691 90.9713 6.85543 90.0441 5.54195L86.7762 7.84868C87.0991 8.30603 87.3477 9.01923 87.3477 10.1523H91.3477ZM90.052 5.55318C88.9087 3.90977 87.0327 3.34398 85.1062 3.32819L85.0735 7.32806C86.324 7.33831 86.6616 7.68398 86.7683 7.83744L90.052 5.55318ZM85.0898 3.32812H81.3203V7.32812H85.0898V3.32812ZM79.3203 5.32812V15.0156H83.3203V5.32812H79.3203ZM96.8477 5.62109H94.8477V7.62109H96.8477V5.62109ZM96.8477 0.5625V-1.4375H94.8477V0.5625H96.8477ZM119.211 0.5625H121.211V-1.4375H119.211V0.5625ZM119.211 5.62109V7.62109H121.211V5.62109H119.211ZM111.32 5.62109V3.62109H109.32V5.62109H111.32ZM111.32 29V31H113.32V29H111.32ZM104.777 29H102.777V31H104.777V29ZM104.777 5.62109H106.777V3.62109H104.777V5.62109ZM98.8477 5.62109V0.5625H94.8477V5.62109H98.8477ZM96.8477 2.5625H119.211V-1.4375H96.8477V2.5625ZM117.211 0.5625V5.62109H121.211V0.5625H117.211ZM119.211 3.62109H111.32V7.62109H119.211V3.62109ZM109.32 5.62109V29H113.32V5.62109H109.32ZM111.32 27H104.777V31H111.32V27ZM106.777 29V5.62109H102.777V29H106.777ZM104.777 3.62109H96.8477V7.62109H104.777V3.62109ZM123.742 3.49219L122.332 2.07392L122.328 2.07797L123.742 3.49219ZM123.742 26.0703L122.328 27.4845L122.332 27.4886L123.742 26.0703ZM128.508 22.9453L126.924 24.1664L126.932 24.1766L128.508 22.9453ZM136.496 22.9453L134.928 21.7039L134.92 21.714L136.496 22.9453ZM136.496 6.67578L134.92 7.90707L134.927 7.91616L134.934 7.92517L136.496 6.67578ZM128.508 6.67578L126.932 5.44449L126.93 5.44675L128.508 6.67578ZM122.344 15.6016V13.9609H118.344V15.6016H122.344ZM122.344 13.9609C122.344 9.52898 123.411 6.65157 125.156 4.9064L122.328 2.07797C119.542 4.86405 118.344 8.96581 118.344 13.9609H122.344ZM125.152 4.91045C127.013 3.06012 129.409 2.09375 132.512 2.09375V-1.90625C128.479 -1.90625 125.028 -0.606993 122.332 2.07393L125.152 4.91045ZM132.512 2.09375C135.615 2.09375 138.01 3.06012 139.871 4.91045L142.691 2.07393C139.995 -0.606993 136.544 -1.90625 132.512 -1.90625V2.09375ZM139.871 4.91045C141.627 6.65598 142.699 9.53177 142.699 13.9609H146.699C146.699 8.96302 145.493 4.85964 142.691 2.07393L139.871 4.91045ZM142.699 13.9609V15.6016H146.699V13.9609H142.699ZM142.699 15.6016C142.699 20.0307 141.627 22.9065 139.871 24.6521L142.691 27.4886C145.493 24.7029 146.699 20.5995 146.699 15.6016H142.699ZM139.871 24.6521C138.01 26.5024 135.615 27.4688 132.512 27.4688V31.4688C136.544 31.4688 139.995 30.1695 142.691 27.4886L139.871 24.6521ZM132.512 27.4688C129.409 27.4688 127.013 26.5024 125.152 24.6521L122.332 27.4886C125.028 30.1695 128.479 31.4688 132.512 31.4688V27.4688ZM125.156 24.6561C123.411 22.9109 122.344 20.0335 122.344 15.6016H118.344C118.344 20.5967 119.542 24.6984 122.328 27.4845L125.156 24.6561ZM125.062 16.9492C125.062 19.8452 125.554 22.3894 126.924 24.1663L130.092 21.7243C129.534 21.0012 129.062 19.548 129.062 16.9492H125.062ZM126.932 24.1766C128.316 25.9482 130.251 26.8203 132.512 26.8203V22.8203C131.387 22.8203 130.653 22.4424 130.084 21.714L126.932 24.1766ZM132.512 26.8203C134.765 26.8203 136.691 25.9439 138.072 24.1766L134.92 21.714C134.348 22.4467 133.618 22.8203 132.512 22.8203V26.8203ZM138.064 24.1867C139.473 22.4067 139.98 19.853 139.98 16.9492H135.98C135.98 19.5402 135.498 20.9839 134.928 21.7039L138.064 24.1867ZM139.98 16.9492V12.6328H135.98V16.9492H139.98ZM139.98 12.6328C139.98 9.74213 139.474 7.196 138.058 5.42639L134.934 7.92517C135.498 8.62952 135.98 10.0547 135.98 12.6328H139.98ZM138.072 5.44449C136.691 3.67718 134.765 2.80078 132.512 2.80078V6.80078C133.618 6.80078 134.348 7.17439 134.92 7.90707L138.072 5.44449ZM132.512 2.80078C130.251 2.80078 128.316 3.67291 126.932 5.44449L130.084 7.90707C130.653 7.17865 131.387 6.80078 132.512 6.80078V2.80078ZM126.93 5.44675C125.554 7.21336 125.062 9.75001 125.062 12.6328H129.062C129.062 10.0469 129.535 8.61216 130.086 7.90481L126.93 5.44675ZM125.062 12.6328V16.9492H129.062V12.6328H125.062ZM148.234 37.2617H146.234V39.2617H148.234V37.2617ZM148.234 9.85938V7.85938H146.234V9.85938H148.234ZM154.27 9.85938L156.269 9.80722L156.218 7.85938H154.27V9.85938ZM154.328 12.1055L152.329 12.1576L152.394 14.6506L154.813 14.0458L154.328 12.1055ZM154.406 12.0859L154.891 14.0262L155.692 13.826L156.119 13.1193L154.406 12.0859ZM156.633 10.1914L157.518 11.9848L157.527 11.9803L157.536 11.9757L156.633 10.1914ZM166.047 11.9883L164.539 13.3021L164.544 13.3077L166.047 11.9883ZM166.027 26.7539L164.506 25.456L164.505 25.457L166.027 26.7539ZM156.77 28.7656L155.946 30.5881L155.956 30.5928L155.967 30.5974L156.77 28.7656ZM154.504 27.0469L156.08 25.815L152.504 21.2416V27.0469H154.504ZM154.504 37.2617V39.2617H156.504V37.2617H154.504ZM154.504 22.4375H152.504V22.8331L152.655 23.199L154.504 22.4375ZM155.871 24.1953L154.626 25.7602L154.635 25.768L154.645 25.7758L155.871 24.1953ZM160.988 23.5898L159.339 22.4588L159.335 22.4639L160.988 23.5898ZM160.988 15.2305L159.351 16.379L159.361 16.393L159.371 16.4068L160.988 15.2305ZM155.852 14.6641L157.073 16.2481L157.083 16.2402L157.093 16.2322L155.852 14.6641ZM154.504 16.3828L152.655 15.6213L152.504 15.9872V16.3828H154.504ZM150.234 37.2617V9.85938H146.234V37.2617H150.234ZM148.234 11.8594H154.27V7.85938H148.234V11.8594ZM152.27 9.91153L152.329 12.1576L156.327 12.0533L156.269 9.80722L152.27 9.91153ZM154.813 14.0458L154.891 14.0262L153.921 10.1457L153.843 10.1652L154.813 14.0458ZM156.119 13.1193C156.326 12.7761 156.731 12.3735 157.518 11.9848L155.747 8.39803C154.478 9.02494 153.398 9.88532 152.694 11.0526L156.119 13.1193ZM157.536 11.9757C158.253 11.6127 159.097 11.4102 160.109 11.4102V7.41016C158.544 7.41016 157.07 7.72845 155.729 8.40709L157.536 11.9757ZM160.109 11.4102C162.044 11.4102 163.454 12.057 164.539 13.3021L167.555 10.6745C165.645 8.48206 163.097 7.41016 160.109 7.41016V11.4102ZM164.544 13.3077C165.63 14.5452 166.293 16.3721 166.293 19.0391H170.293C170.293 15.7165 169.458 12.8428 167.55 10.6688L164.544 13.3077ZM166.293 19.0391V19.6641H170.293V19.0391H166.293ZM166.293 19.6641C166.293 22.2759 165.631 24.1362 164.506 25.456L167.549 28.0518C169.444 25.83 170.293 22.9637 170.293 19.6641H166.293ZM164.505 25.457C163.408 26.7444 162.017 27.3906 160.148 27.3906V31.3906C163.124 31.3906 165.652 30.279 167.55 28.0508L164.505 25.457ZM160.148 27.3906C159.055 27.3906 158.214 27.2152 157.572 26.9339L155.967 30.5974C157.226 31.1494 158.638 31.3906 160.148 31.3906V27.3906ZM157.593 26.9432C156.894 26.6269 156.413 26.2411 156.08 25.815L152.928 28.2787C153.715 29.2849 154.744 30.045 155.946 30.5881L157.593 26.9432ZM152.504 27.0469V37.2617H156.504V27.0469H152.504ZM154.504 35.2617H148.234V39.2617H154.504V35.2617ZM152.655 23.199C153.074 24.2185 153.758 25.0695 154.626 25.7602L157.117 22.6305C156.708 22.3055 156.48 21.9846 156.353 21.676L152.655 23.199ZM154.645 25.7758C155.668 26.5691 156.873 26.9375 158.156 26.9375V22.9375C157.669 22.9375 157.35 22.8111 157.097 22.6149L154.645 25.7758ZM158.156 26.9375C159.961 26.9375 161.588 26.2622 162.641 24.7158L159.335 22.4639C159.165 22.7144 158.903 22.9375 158.156 22.9375V26.9375ZM162.638 24.7209C163.561 23.3746 163.926 21.7269 163.926 19.957H159.926C159.926 21.208 159.666 21.9822 159.339 22.4588L162.638 24.7209ZM163.926 19.957V18.8242H159.926V19.957H163.926ZM163.926 18.8242C163.926 17.0461 163.568 15.3773 162.606 14.0541L159.371 16.4068C159.658 16.8024 159.926 17.5294 159.926 18.8242H163.926ZM162.626 14.0819C161.562 12.5661 159.938 11.9219 158.156 11.9219V15.9219C158.927 15.9219 159.19 16.15 159.351 16.379L162.626 14.0819ZM158.156 11.9219C156.862 11.9219 155.638 12.282 154.61 13.096L157.093 16.2322C157.315 16.0565 157.628 15.9219 158.156 15.9219V11.9219ZM154.631 13.08C153.756 13.7543 153.075 14.6012 152.655 15.6213L156.353 17.1443C156.48 16.8363 156.697 16.5373 157.073 16.2481L154.631 13.08ZM152.504 16.3828V22.4375H156.504V16.3828H152.504ZM188.391 11.9492L187.022 13.4077L187.027 13.4123L188.391 11.9492ZM188.391 26.8516L187.027 25.3885L187.022 25.3931L188.391 26.8516ZM173.273 26.8516L171.905 28.31L171.91 28.3147L173.273 26.8516ZM177.844 23.668L176.258 24.8863L176.266 24.8975L177.844 23.668ZM183.84 23.668L185.417 24.8975L185.426 24.8863L183.84 23.668ZM183.82 15.1719L182.243 16.4014L182.253 16.4142L182.263 16.4269L183.82 15.1719ZM177.844 15.1719L176.278 13.9281L176.275 13.9311L177.844 15.1719ZM172.422 19.7031V19.0781H168.422V19.7031H172.422ZM172.422 19.0781C172.422 16.582 173.205 14.7652 174.657 13.4123L171.929 10.4861C169.553 12.7009 168.422 15.6368 168.422 19.0781H172.422ZM174.657 13.4123C176.131 12.0386 178.128 11.2734 180.852 11.2734V7.27344C177.325 7.27344 174.284 8.29213 171.929 10.4861L174.657 13.4123ZM180.852 11.2734C183.575 11.2734 185.563 12.0387 187.022 13.4077L189.759 10.4908C187.416 8.29203 184.378 7.27344 180.852 7.27344V11.2734ZM187.027 13.4123C188.479 14.7652 189.262 16.582 189.262 19.0781H193.262C193.262 15.6368 192.131 12.7009 189.754 10.4861L187.027 13.4123ZM189.262 19.0781V19.7031H193.262V19.0781H189.262ZM189.262 19.7031C189.262 22.2152 188.477 24.0373 187.027 25.3885L189.754 28.3147C192.133 26.0981 193.262 23.1546 193.262 19.7031H189.262ZM187.022 25.3931C185.563 26.7621 183.575 27.5273 180.852 27.5273V31.5273C184.378 31.5273 187.416 30.5087 189.759 28.31L187.022 25.3931ZM180.852 27.5273C178.113 27.5273 176.109 26.7607 174.637 25.3885L171.91 28.3147C174.266 30.5101 177.314 31.5273 180.852 31.5273V27.5273ZM174.642 25.3931C173.203 24.0431 172.422 22.2196 172.422 19.7031H168.422C168.422 23.1502 169.542 26.0923 171.905 28.31L174.642 25.3931ZM174.809 18.8047V19.957H178.809V18.8047H174.809ZM174.809 19.957C174.809 21.8043 175.212 23.5247 176.258 24.8863L179.43 22.4497C179.095 22.0144 178.809 21.2608 178.809 19.957H174.809ZM176.266 24.8975C177.399 26.3506 179.025 26.9961 180.832 26.9961V22.9961C180.035 22.9961 179.669 22.7562 179.421 22.4385L176.266 24.8975ZM180.832 26.9961C182.645 26.9961 184.281 26.3558 185.417 24.8975L182.262 22.4385C182.019 22.751 181.65 22.9961 180.832 22.9961V26.9961ZM185.426 24.8863C186.472 23.5247 186.875 21.8043 186.875 19.957H182.875C182.875 21.2608 182.588 22.0144 182.254 22.4497L185.426 24.8863ZM186.875 19.957V18.8047H182.875V19.957H186.875ZM186.875 18.8047C186.875 16.9715 186.46 15.2594 185.378 13.9168L182.263 16.4269C182.587 16.8292 182.875 17.5389 182.875 18.8047H186.875ZM185.398 13.9424C184.265 12.4893 182.639 11.8438 180.832 11.8438V15.8438C181.629 15.8438 181.995 16.0836 182.243 16.4014L185.398 13.9424ZM180.832 11.8438C179.03 11.8438 177.416 12.4941 176.278 13.9281L179.41 16.4156C179.677 16.0789 180.056 15.8438 180.832 15.8438V11.8438ZM176.275 13.9311C175.214 15.2726 174.809 16.979 174.809 18.8047H178.809C178.809 17.5314 179.093 16.816 179.412 16.4127L176.275 13.9311ZM193.488 22.8672L193.502 20.8672L191.488 20.8536V22.8672H193.488ZM199.27 22.9062H201.27V20.9197L199.283 20.9063L199.27 22.9062ZM200.148 25.1719L199.065 26.853L199.073 26.8584L199.082 26.8637L200.148 25.1719ZM204.777 25.25L205.897 26.9072L205.907 26.9006L204.777 25.25ZM204.621 22.4375L203.65 24.1858L203.673 24.1985L203.696 24.2107L204.621 22.4375ZM200.91 21.4023L200.528 23.3655L200.531 23.3661L200.91 21.4023ZM195.637 19.2344L194.295 20.7174L194.304 20.7258L194.313 20.7341L195.637 19.2344ZM196.301 10.8555L197.423 12.5109L197.426 12.5088L196.301 10.8555ZM208.996 10.9141L207.843 12.548L207.852 12.5545L208.996 10.9141ZM211.32 15.7773V17.7773H213.32V15.7773H211.32ZM205.539 15.7773H203.539V17.7773H205.539V15.7773ZM204.777 13.7266L203.564 15.3165L203.587 15.3342L203.611 15.3512L204.777 13.7266ZM200.598 13.6094L201.755 15.2404L201.772 15.2282L201.789 15.2156L200.598 13.6094ZM200.871 16.0703L199.93 17.835L199.938 17.8393L199.946 17.8435L200.871 16.0703ZM204.621 17.0859L204.244 19.0501L204.253 19.0517L204.261 19.0532L204.621 17.0859ZM210.051 19.1953L208.765 20.7275L208.776 20.7361L210.051 19.1953ZM209.426 27.8867L210.586 29.5161L210.588 29.5142L209.426 27.8867ZM193.488 23.1602H191.488V23.1794L191.489 23.1986L193.488 23.1602ZM193.475 24.8671L199.256 24.9062L199.283 20.9063L193.502 20.8672L193.475 24.8671ZM197.27 22.9062V23.2578H201.27V22.9062H197.27ZM197.27 23.2578C197.27 24.6143 197.744 26.0014 199.065 26.853L201.232 23.4907C201.239 23.4955 201.257 23.5087 201.276 23.5311C201.296 23.5534 201.305 23.5712 201.307 23.5756C201.309 23.5808 201.27 23.4966 201.27 23.2578H197.27ZM199.082 26.8637C200.11 27.5121 201.333 27.7383 202.57 27.7383V23.7383C201.777 23.7383 201.385 23.5869 201.215 23.48L199.082 26.8637ZM202.57 27.7383C203.709 27.7383 204.925 27.5639 205.897 26.9072L203.658 23.5928C203.677 23.5798 203.624 23.6211 203.432 23.6634C203.242 23.7054 202.962 23.7383 202.57 23.7383V27.7383ZM205.907 26.9006C206.96 26.1801 207.52 25.0799 207.52 23.8242H203.52C203.52 23.8548 203.515 23.802 203.56 23.7162C203.58 23.6771 203.604 23.6454 203.624 23.6228C203.644 23.6008 203.655 23.5943 203.648 23.5994L205.907 26.9006ZM207.52 23.8242C207.52 23.1767 207.356 22.5214 206.973 21.9311C206.598 21.3513 206.083 20.9444 205.546 20.6643L203.696 24.2107C203.758 24.2431 203.693 24.2235 203.616 24.106C203.58 24.0496 203.553 23.9886 203.537 23.9304C203.521 23.8737 203.52 23.8352 203.52 23.8242H207.52ZM205.592 20.6892C204.684 20.1846 203.132 19.7945 201.289 19.4386L200.531 23.3661C202.464 23.7394 203.386 24.0394 203.65 24.1858L205.592 20.6892ZM201.292 19.4392C199.027 18.9984 197.677 18.3677 196.96 17.7347L194.313 20.7341C195.81 22.0542 197.976 22.8688 200.528 23.3655L201.292 19.4392ZM196.979 17.7513C196.357 17.1891 195.996 16.4341 195.996 15.2695H191.996C191.996 17.4123 192.729 19.3005 194.295 20.7174L196.979 17.7513ZM195.996 15.2695C195.996 14.0125 196.451 13.1698 197.423 12.5109L195.178 9.20005C193.077 10.6245 191.996 12.7245 191.996 15.2695H195.996ZM197.426 12.5088C198.528 11.759 200.206 11.2734 202.668 11.2734V7.27344C199.739 7.27344 197.173 7.84261 195.175 9.20213L197.426 12.5088ZM202.668 11.2734C205.087 11.2734 206.743 11.7717 207.843 12.548L210.149 9.28013C208.15 7.86897 205.588 7.27344 202.668 7.27344V11.2734ZM207.852 12.5545C208.848 13.2493 209.32 14.138 209.32 15.4453H213.32C213.32 12.8724 212.243 10.7403 210.14 9.27366L207.852 12.5545ZM209.32 15.4453V15.7773H213.32V15.4453H209.32ZM211.32 13.7773H205.539V17.7773H211.32V13.7773ZM207.539 15.7773V15.4062H203.539V15.7773H207.539ZM207.539 15.4062C207.539 14.1584 207.087 12.9226 205.944 12.1019L203.611 15.3512C203.604 15.346 203.586 15.332 203.567 15.3084C203.547 15.2847 203.534 15.2619 203.527 15.2459C203.513 15.2142 203.539 15.25 203.539 15.4062H207.539ZM205.991 12.1367C204.999 11.3797 203.752 11.1602 202.57 11.1602V15.1602C203.342 15.1602 203.566 15.3182 203.564 15.3165L205.991 12.1367ZM202.57 11.1602C201.535 11.1602 200.338 11.3118 199.406 12.0032L201.789 15.2156C201.706 15.2772 201.692 15.2557 201.838 15.2225C201.98 15.1901 202.216 15.1602 202.57 15.1602V11.1602ZM199.44 11.9784C198.461 12.6732 197.992 13.7176 197.992 14.8398H201.992C201.992 14.8279 201.993 14.9027 201.938 15.0149C201.88 15.1326 201.802 15.2075 201.755 15.2404L199.44 11.9784ZM197.992 14.8398C197.992 16.3178 198.926 17.2994 199.93 17.835L201.812 14.3056C201.709 14.2503 201.759 14.2533 201.839 14.3658C201.881 14.4247 201.923 14.5019 201.952 14.5943C201.982 14.6866 201.992 14.7716 201.992 14.8398H197.992ZM199.946 17.8435C200.846 18.3128 202.384 18.6934 204.244 19.0501L204.998 15.1217C203.056 14.7493 202.095 14.4528 201.796 14.2971L199.946 17.8435ZM204.261 19.0532C206.619 19.4853 208.025 20.1061 208.765 20.7274L211.336 17.6632C209.811 16.3835 207.597 15.598 204.982 15.1187L204.261 19.0532ZM208.776 20.7361C209.385 21.2401 209.75 21.9414 209.75 23.1016H213.75C213.75 20.9284 212.983 19.0255 211.326 17.6545L208.776 20.7361ZM209.75 23.1016C209.75 24.6099 209.232 25.5673 208.263 26.2593L210.588 29.5142C212.718 27.9926 213.75 25.7599 213.75 23.1016H209.75ZM208.266 26.2574C207.212 27.0075 205.442 27.5273 202.668 27.5273V31.5273C205.831 31.5273 208.566 30.9535 210.586 29.516L208.266 26.2574ZM202.668 27.5273C199.981 27.5273 198.197 27.0091 197.073 26.2262L194.786 29.5082C196.84 30.9388 199.548 31.5273 202.668 31.5273V27.5273ZM197.073 26.2262C196.04 25.5064 195.515 24.5496 195.488 23.1217L191.489 23.1986C191.539 25.8332 192.642 28.0144 194.786 29.5082L197.073 26.2262ZM195.488 23.1602V22.8672H191.488V23.1602H195.488ZM213.078 14.3906H211.078V16.3906H213.078V14.3906ZM213.078 9.85938V7.85938H211.078V9.85938H213.078ZM226.086 9.85938H228.086V7.85938H226.086V9.85938ZM226.086 14.3906V16.3906H228.086V14.3906H226.086ZM216.008 11.3242L214.092 10.7495L214.008 11.0307V11.3242H216.008ZM216.125 10.9336L218.041 11.5083L218.125 11.2271V10.9336H216.125ZM216.125 4.39062V2.39062H214.125V4.39062H216.125ZM222.199 4.39062H224.199V2.39062H222.199V4.39062ZM222.707 24.4102L221.241 25.7711L221.254 25.7844L221.266 25.7974L222.707 24.4102ZM225.188 24.8594L225.53 26.8298L225.571 26.8226L225.612 26.8137L225.188 24.8594ZM226.066 24.6055H228.066V21.7501L225.383 22.7259L226.066 24.6055ZM226.066 28.9414L226.784 30.8081L228.066 30.315V28.9414H226.066ZM224.562 29.293L224.253 27.3171L224.234 27.3201L224.215 27.3234L224.562 29.293ZM217.629 27.9648L216.269 29.4311L216.277 29.4392L217.629 27.9648ZM215.078 14.3906V9.85938H211.078V14.3906H215.078ZM213.078 11.8594H226.086V7.85938H213.078V11.8594ZM224.086 9.85938V14.3906H228.086V9.85938H224.086ZM226.086 12.3906H213.078V16.3906H226.086V12.3906ZM218.008 23.1406V11.3242H214.008V23.1406H218.008ZM217.923 11.8989L218.041 11.5083L214.209 10.3589L214.092 10.7495L217.923 11.8989ZM218.125 10.9336V4.39062H214.125V10.9336H218.125ZM216.125 6.39062H222.199V2.39062H216.125V6.39062ZM220.199 4.39062V22.1641H224.199V4.39062H220.199ZM220.199 22.1641C220.199 22.8158 220.247 23.4464 220.375 24.0162C220.499 24.5636 220.736 25.2266 221.241 25.7711L224.173 23.0493C224.34 23.2292 224.322 23.3355 224.277 23.1342C224.236 22.9553 224.199 22.6452 224.199 22.1641H220.199ZM221.266 25.7974C222.116 26.6793 223.245 26.9375 224.25 26.9375V22.9375C224.162 22.9375 224.097 22.9318 224.054 22.9255C224.011 22.9192 223.993 22.9129 223.993 22.9131C223.995 22.9136 224.015 22.9206 224.046 22.9398C224.077 22.9594 224.113 22.9871 224.148 23.0229L221.266 25.7974ZM224.25 26.9375C224.682 26.9375 225.11 26.9029 225.53 26.8298L224.845 22.889C224.666 22.92 224.469 22.9375 224.25 22.9375V26.9375ZM225.612 26.8137C225.999 26.7296 226.379 26.6201 226.75 26.4851L225.383 22.7259C225.181 22.7992 224.975 22.8589 224.763 22.905L225.612 26.8137ZM224.066 24.6055V28.9414H228.066V24.6055H224.066ZM225.348 27.0747C225.209 27.1283 224.874 27.2197 224.253 27.3171L224.872 31.2688C225.579 31.1579 226.246 31.015 226.784 30.8081L225.348 27.0747ZM224.215 27.3234C223.7 27.4142 223.023 27.4688 222.16 27.4688V31.4688C223.173 31.4688 224.097 31.4061 224.91 31.2625L224.215 27.3234ZM222.16 27.4688C220.58 27.4688 219.606 27.0637 218.98 26.4905L216.277 29.4392C217.84 30.8712 219.887 31.4688 222.16 31.4688V27.4688ZM218.989 26.4986C218.484 26.0297 218.008 25.0766 218.008 23.1406H214.008C214.008 25.6317 214.613 27.8948 216.269 29.4311L218.989 26.4986Z" fill="black"/>
</svg>
